<?xml version="1.0" encoding="UTF-8"?><svg id="Layer_1" xmlns="http://www.w3.org/2000/svg" viewBox="0 0 136.31 161.73"><path d="M124.54,4.62c3.95,0,7.16,2.61,7.16,5.81v140.87c0,3.2-3.21,5.81-7.16,5.81H11.78c-3.95,0-7.16-2.61-7.16-5.81V10.43c0-3.2,3.21-5.81,7.16-5.81h112.76ZM124.54,0H11.78C5.28,0,0,4.68,0,10.43v140.87c0,5.75,5.28,10.43,11.78,10.43h112.76c6.49,0,11.78-4.68,11.78-10.43V10.43c0-5.75-5.28-10.43-11.78-10.43h0Z"/><path d="M40.41,99.87c-.24,0-.49-.08-.7-.24-1.04-.79-1.36-.82-2.88-.66-.64.06-1.2-.39-1.27-1.03-.07-.63.39-1.2,1.03-1.27,1.87-.2,2.86-.15,4.53,1.12.51.39.6,1.11.22,1.62-.23.3-.57.45-.92.45Z"/><path d="M46.07,99.76c-.26,0-.52-.09-.74-.27-.49-.41-.56-1.14-.15-1.63.54-.65.43-1.87.31-3.15-.04-.41-.08-.82-.09-1.22-.01-.24-.03-.64-.13-.8-.07-.11-.29-.27-.46-.39l-2.53-1.83c-.52-.37-.63-1.1-.26-1.61.37-.52,1.1-.63,1.61-.26l2.53,1.83c.31.23.74.54,1.05,1.02.41.63.47,1.31.5,1.94.02.37.05.74.09,1.12.15,1.62.32,3.46-.84,4.85-.23.27-.56.41-.89.41Z"/><path d="M64.19,77.66c-1.19.57-2.37,1.14-3.55,1.71l-.04.02c-.63.3-1.28.6-2.01.8-.32.09-.67.16-1.07.21-.39.05-.81.08-1.29.08-.14,0-.29-.01-.44-.01-1.35-.04-2.69-.23-3.99-.57-.31-.08-.61-.17-.91-.26l-.14-.05c-.33-.11-.64-.21-.91-.23-.6-.04-1.29.34-2.05.79-.55.33-1.26.15-1.59-.39-.32-.55-.15-1.26.4-1.59.85-.51,2.03-1.21,3.4-1.11.55.04,1.04.19,1.46.33l.13.04c.25.08.52.16.79.23,1.14.3,2.31.47,3.48.5.54.01.98,0,1.38-.05.28-.04.52-.08.74-.14.53-.15,1.06-.4,1.62-.67.73-.35,1.45-.69,2.17-1.04l-.09-.03c-.71-.25-1.43-.51-2.15-.76l-.19-.06c-1.84-.64-3.37-1.13-4.84-1.56-.89-.26-1.71-.48-2.51-.67-1.04-.26-2.13-.49-3.03-.21-.31.09-.61.29-.84.54-.15.17-.39.5-.31.86.13.62-.27,1.23-.89,1.37-.63.13-1.24-.27-1.37-.89-.21-.99.1-2.04.85-2.88.5-.56,1.17-1,1.89-1.21,1.46-.45,2.96-.14,4.25.17.83.21,1.69.44,2.61.71,1.46.42,3,.91,4.83,1.54l.12.05c.79.27,1.58.54,2.36.82l1.55.56c.61.2.96.86.76,1.47-.01.02-.02.05-.03.07.26.57.02,1.24-.55,1.51Z"/><path d="M33.43,68.54c-.39.51-1.11.62-1.62.23-1.28-.96-2.86-1.47-4.45-1.43-1.52.04-2.96.57-4.05,1.48l-.54-1.27c.02-.26.06-.73.18-1.28,1.29-.77,2.8-1.21,4.36-1.24,2.1-.05,4.2.63,5.89,1.9.51.38.61,1.1.23,1.61Z"/><path d="M64.03,71.1c-.1,0-.2-.01-.3-.04-.33-.09-.66-.22-1.01-.4l-.07-.04c-.14-.07-.27-.15-.4-.24-.03-.02-.05-.03-.08-.05-.32-.2-.61-.42-.9-.64-.32-.24-.63-.47-.94-.65-.42-.25-.89-.46-1.5-.66l-.21-.07c-.32-.1-.63-.19-.91-.26-2.05-.56-4.73-1.18-7.38-1.07-.16,0-.32.02-.48.03-1.62.13-3.92.61-5.78,2.16-.09.07-.16.13-.23.19-.48.42-1.21.38-1.63-.1-.42-.48-.38-1.21.1-1.63.1-.09.2-.18.31-.26,1.82-1.51,4.25-2.44,7.02-2.67.18-.02.38-.03.59-.04,2.97-.13,5.89.55,8.09,1.15.31.08.68.19,1.05.31h.28l.16.15c.65.23,1.21.49,1.71.78.41.25.78.52,1.13.78.27.2.52.39.78.55.03.02.06.03.08.05.08.05.16.1.24.14l.05.03c.19.1.37.17.54.22.62.17.98.8.81,1.42-.14.51-.61.85-1.11.85Z"/><path d="M35.7,79.22c-.28.6-.58,1.17-.89,1.75l-.08.16c-.63,1.18-1.26,2.37-1.9,3.57-.35.66-.72,1.35-1.16,2-.17.25-.34.49-.53.73-.4.54-.82,1.07-1.24,1.59-.38.48-.78.97-1.15,1.47-.54.72-.71,3.82.04,5.37.06.15.13.26.21.35.4.49.33,1.22-.16,1.63-.21.18-.47.26-.73.26-.34,0-.67-.14-.89-.42-.21-.24-.38-.52-.52-.83-1.04-2.16-.94-6.22.2-7.75.39-.52.8-1.03,1.2-1.53.4-.5.81-1.01,1.19-1.52.17-.22.32-.43.47-.65.37-.55.69-1.15,1.03-1.78.64-1.2,1.27-2.39,1.91-3.58l.07-.15c.09-.17.18-.35.27-.52h0c.19-.37.38-.74.54-1.11.15-.34.28-.66.38-.96.02-.04.03-.09.05-.14.23-.72.32-1.36.27-1.95-.02-.2.02-.39.1-.56.17-.37.53-.64.96-.68.64-.05,1.2.42,1.25,1.06.13,1.68-.45,3.19-.9,4.19Z"/><path d="M34.39,74.65c-.08.17-.12.36-.1.56.05.59-.04,1.23-.27,1.95-.02.05-.03.1-.05.14-.02,0-.03-.03-.05-.04-.06-.05-.12-.1-.18-.16h-.01c-.73-.61-1.47-1.22-2.23-1.82-.74-.58-1.41-1.07-2.11-1.18-.49-.07-1.04.03-1.72.21-1.1.29-1.41.62-1.48.84-.01.02-.01.03-.02.05-.23-.56-.53-1.15-.88-1.74l-.21-.49c.74-.56,1.61-.79,2-.89.83-.22,1.72-.4,2.66-.26,1.25.19,2.26.92,3.19,1.65.49.39.98.78,1.46,1.18Z"/><path d="M34.02,77.16s-.03.1-.05.14c-.1.3-.23.62-.38.96-.16.37-.35.74-.54,1.11h0c-.37-.03-.67-.02-.9.09-.17.07-.36.23-.57.4-.16.13-.31.25-.47.36-.21.15-.43.28-.66.39l-.26.12c-.6.25-1.27.38-1.93.38-.16,0-.32,0-.48-.03-.22-.02-.44-.06-.66-.11.02-.21.03-.44.04-.67.02-.52,0-1.12-.08-1.79.27.15.59.24.92.27.49.05,1-.04,1.44-.25l.09-.04c.09-.05.17-.1.24-.15.12-.08.23-.18.35-.27.3-.25.64-.52,1.08-.72.92-.41,1.85-.32,2.54-.25h.01c.1,0,.19.03.28.06Z"/><path d="M100.86,78.27h.01s.01-.02.01-.03c-.01.01-.01.02-.02.03ZM99.4,82.05s.01.06.02.09c.01.03.02.07.04.1-.03-.06-.05-.12-.06-.19ZM100.86,78.27h.01s.01-.02.01-.03c-.01.01-.01.02-.02.03ZM99.4,82.05s.01.06.02.09c.01.03.02.07.04.1-.03-.06-.05-.12-.06-.19ZM100.86,78.27h.01s.01-.02.01-.03c-.01.01-.01.02-.02.03ZM99.4,82.05s.01.06.02.09c.01.03.02.07.04.1-.03-.06-.05-.12-.06-.19Z"/><path d="M132.63,130.46l-14-7.56c-.36-.19-.7-.42-1.02-.68l-11.78-9.62c-1.19-.98-2-2.35-2.27-3.86-1.36-7.66-1.73-13.31-.96-15.14.05-.12.11-.24.16-.37.86-1.96,1.73-3.3,2.3-4.08.63-.86,1.1-1.8,1.38-2.81.16-.56.35-1.23.53-1.93.17-.62.34-1.26.49-1.87l.03-.14c.56-2.31.58-2.94.53-3.3.01-.6.79-3.67,2.49-9.05.18-.58.31-1.18.36-1.78.03-.3.06-.66.09-1.08.08-1.21.14-3.14.01-5.47-.08-1.39-.22-2.77-.41-4.09-.7-4.92-2.14-9.49-4.27-13.57-.1-.21-.21-.4-.34-.6-1.47-2.38-9.12-14.36-15.11-16.54-.47-.16-.95-.36-1.47-.58l-.17-.07c-.72-.32-1.4-.64-2.13-.99-2.13-1.01-4.33-2.05-7.47-2.82-3.9-.95-8.67-1.3-14.58-1.04-14.47.61-27.47,5.26-31.63,11.32-.43.62-.95,1.21-1.6,1.82-1.83,1.69-4.7,5.24-3.69,10.19-.11.34-.61,1.97-1.28,4.12-.96,3-1.81,5.61-2.54,7.75-1.67,4.91-2.21,5.95-2.36,6.17-.28.4-.53.85-.72,1.33-.74,1.77-.75,3.57-.75,3.65v.23l2.75,6.44.07.15c1.37,2.25,1.61,4.31,1.57,5.65-.03,1.15-.26,1.99-.37,2.31-.88,1.12-1.36,3.15-1.5,6.36-.17,4.29.36,9.09.38,9.3l2.35,22.54c.03.33.06.66.08.97l.04.55v.12c.09,1.92-.06,3.51-.42,4.72-.37,1.22-.85,1.69-.96,1.79-.2.09-.69.32-1.44.66-.67.32-2.36,1.08-4.49,2.04-4.96,2.24-12.46,5.62-15.99,7.35-.57.29-.8.98-.52,1.55.2.41.61.65,1.03.65.18,0,.35-.04.51-.12,3.49-1.72,10.97-5.09,15.92-7.33,2.14-.96,3.83-1.72,4.52-2.04.96-.45,1.51-.71,1.51-.71l.07-.03c.09-.05.34-.2.65-.53.02.8.06,1.54.13,2.25.01.1.02.21.03.31v.08c.27,2.08,1.15,5.89,4.17,8.09.3.21.6.4.9.56,1.48.79,3.08,1.04,4.63,1.27.56.09,1.09.17,1.61.27,1.53.31,3,.84,4.55,1.4.33.12.67.24,1,.36,1.09.39,2.39.82,3.74,1.1l.42.09h.02c1.86.35,3.75.42,5.59.5l5.51.22c1.46.05,3.17.12,4.91.12.92,0,1.86-.02,2.77-.07h.07c.57-.03,1.14-.07,1.7-.13,3.26-.31,6.01-1.04,8.42-2.22.99-.49,1.95-1.06,2.85-1.72.24-.17.48-.34.7-.52,4.17-3.24,6.97-7.87,8.95-11.53.17-.32.34-.64.51-.95l.13-.26c.25-.48.49-.95.72-1.42.2-.39.4-.78.59-1.18l.29-.58c.28-.58.57-1.16.85-1.75.17-.34.34-.69.5-1.03l.19-.21v-.19c.1-.22.2-.44.29-.64.12-.25.23-.5.34-.75.88-1.97,1.54-3.73,2.02-5.37.98-3.3,1.43-6.73,1.34-10.2-.01-.43-.03-.86-.06-1.29v-.04c-.11-1.76-.37-3.52-.75-5.22-.28-1.23-1.36-1.61-2.07-1.87-.22-.08-.58-.21-.68-.3-.08-.21-.21-.38-.37-.5-.69-1.69-1.13-3.48-1.38-5.29-.28-2.03-.32-4.08-.21-6.06.08-1.6.27-3.16.5-4.61.25-1.53.55-2.94.85-4.16.48-1.94.96-3.42,1.23-4.21.14-.4.22-.62.22-.62.99-2.01,2.47-4.27,5.16-4.6,1.54-.18,3.21.38,4.46,1.51,1.17,1.08,1.77,2.42,2.17,3.47.03.08.06.16.09.24.31.85.54,1.72.7,2.6-.21.75-.36,1.36-.47,1.85-.15-1.26-.41-2.49-.79-3.67-.33-1.08-.85-2.45-1.89-3.57-1.15-1.24-2.72-1.85-4.19-1.64-2.82.4-4.13,3.48-4.71,4.92-.38.6-1.7,3.02-2.19,8.42-.15,1.62-.21,3.4-.18,5.31.04,2.15.19,4.48.48,6.96.02.21.04.42.07.62.18,1.53,1.49,2.45,3.51,2.45.25,0,.48,0,.72-.03.85-.08,1.48-.61,1.82-.89.46-.38.9-.79,1.31-1.22-.38,3.62.44,9.53,1.29,14.3.36,2.05,1.46,3.91,3.08,5.24l11.78,9.62c.43.35.9.66,1.38.93l14,7.56c.18.09.37.14.55.14.41,0,.81-.22,1.02-.61.3-.56.09-1.26-.47-1.57ZM39.39,37.1c.96-2.65,4.58-5.46,8.77-7.86.02,0,.05-.02.07-.04,1.05-.53,2.08-1.11,3.12-1.67h0c.68-.35,1.36-.67,2.04-.98-.06.03-.09.05-.09.05-.41.31-.78.6-1.13.87-1.76,1.36-2.88,2.22-4.5,3.73-.67.62-1.28,1.34-1.78,2.13-.78,1.22-1.32,2.61-1.43,4.06-.01,0-.02-.01-.03,0-1.79-.21-3.37-.25-4.7-.1-.15.02-.29.03-.42.05.03-.08.05-.16.07-.24ZM84.29,91.38l-2.1,4.81-2.57,5.9s-.06.11-.17.31c-.53,1.03-2.32,4.41-4.19,7.79-1.34,2.44-2.73,4.87-3.74,6.44-.83,1.3-1.77,2.41-2.86,3.4-2.28,2.07-5.23,3.67-9.33,5.58-.29.14-.58.28-.89.42-4.2,1.93-7.96,2.52-10.16,2.7-1.25.1-1.99.06-1.99.06l-6.35-1.46s.93-3.69.6-5.87c-.13-.85-.45-1.47-1.09-1.56-2.27-.33-2.4,6.85-2.4,6.85-4.08-1.16-7.68-6.63-9.41-9.68l-.65-6.25c1.44-.78,4.45-1.95,9.39-1.9.64,0,1.26.03,1.87.06,3.24.18,6.02.74,8.53,1.66,1.85.69,3.55,1.58,5.16,2.67.55.38,1.05.81,1.48,1.29.93,1.03,1.59,2.29,1.91,3.66l.02.05c.15.67.63,1.22,1.28,1.46.77.29,1.65.08,2.22-.53l.12-.13c.4-.43.6-1,.54-1.59l-.11-1.27c-.09-.94-.45-1.84-1.06-2.57l-1.01-1.22c-.68-.82-1.47-1.56-2.33-2.2-.45-.34-.93-.64-1.42-.92l-4.52-2.52-.06-.03-3.96-1.76c-.88-.39-1.8-.68-2.75-.86-.53-.11-1.07-.18-1.61-.21l-4.19-.28h-1.07c-.37,0-.75,0-1.12.05l-1.66.19c-.5.06-.99.15-1.48.29-1.09.29-2.13.76-3.07,1.4l-1.53,1.04-.89-8.56-.02-.15s-.54-4.82-.37-8.94c.16-3.83.85-4.85,1.05-5.07l.14-.15.08-.19c.05-.12.44-1.09.56-2.62.02-.21.03-.44.04-.67.02-.52,0-1.12-.08-1.79-.13-.98-.39-2.1-.9-3.31-.23-.56-.53-1.15-.88-1.74l-.21-.49-1.77-4.15-.54-1.27c.02-.26.06-.73.18-1.28.08-.39.2-.84.38-1.27.14-.32.3-.62.48-.89.33-.47.92-1.66,2.66-6.75.73-2.15,1.59-4.77,2.55-7.79.77-2.45,1.31-4.22,1.31-4.22l.02.03v-.12s.02-.03.02-.05l.02-.04c.16-.47.64-1.69,1.7-2.85l.09-.09c.45-.47.91-.85,1.41-1.15l.08-.05s.05-.03.07-.04l.33-.19c.45-.24.93-.44,1.42-.58l.3-.08c.78-.21,1.65-.31,2.62-.3.14,0,.28-.01.42-.04.05,0,.1-.02.14-.03h.05c.18-.06.49-.13.98-.19.81-.09,2.22-.14,4.31.12.56.06,1.16.15,1.78.26.95.16,1.98.37,3.09.64,1.5.36,3.12.82,4.83,1.37.05.02.09.03.13.04,1.06.35,2.01.68,2.91,1,2.01.74,4.08,1.56,6.16,2.46,1.51.64,3.13,1.37,4.96,2.23,1.36.65,2.77,1.34,4.2,2.06.67.34,1.37.69,2.07,1.05.06.12.15.36.23.76.07.36.1.75.11,1.21.02,1.3-.2,2.92-.66,4.83-.21.88-.45,1.78-.73,2.67l-.24.77.64.49s.27.21.72.61c.34.3.88.81,1.55,1.52l.27.29c.4.42.79.88,1.18,1.35.45.54.89,1.11,1.32,1.7.47.64.88,1.24,1.26,1.85.15.23.29.46.43.69.31.51.55.93.78,1.36.08.15.16.29.25.46.34.63.64,1.24.92,1.86.4.86.78,1.78,1.14,2.74.38,1.05.73,2.16,1.03,3.3.35,1.29.63,2.64.84,4.02.2,1.31.33,2.65.4,3.98.01.11.03.21.06.31l-1.65,3.8ZM100.31,90.9c-.9,1.29-1.95,2.43-3.11,3.4-.27.23-.45.35-.55.36-.16.01-.31.02-.48.02-.2,0-1.19-.02-1.24-.42-.02-.2-.04-.39-.07-.62-.27-2.39-.43-4.65-.46-6.72-.03-1.82.03-3.52.17-5.06.49-5.36,1.85-7.41,1.85-7.42l.03-.03c.23.05.47.04.7-.06.65-.27,1.34-.34,1.95-.2.62.15,1.17.55,1.41,1.01.72,1.41.67,1.71.62,2.07l-.02.07c-.04.3-.12.61-.23.94,0,.01-.01.03-.01.04h-.01s-.11-.42-.11-.42l-.72-2.51c-.17-.62-.81-.97-1.43-.8-.61.18-.97.82-.79,1.43l.69,2.39v.07s.2.65.2.65c.1.36.2.71.36,1.4.02.1.05.22.08.35.02.09.04.19.06.3.04.15.07.32.11.49.02.1.04.2.07.32,0,.03.01.07.02.1.01.07.03.13.06.19-.02-.03-.03-.07-.04-.1l.33,1.55c-.91-.68-1.77-1.35-2.43-2.4-.34-.54-1.05-.7-1.59-.36-.54.34-.7,1.05-.36,1.59.72,1.16,1.58,1.93,2.44,2.61-.63.42-1.1.97-1.44,1.43-.6.8-1.1,1.68-1.49,2.6-.24.59.03,1.27.62,1.52.15.06.3.09.45.09.45,0,.88-.27,1.06-.71.32-.75.72-1.46,1.21-2.11.39-.52.71-.83,1.02-.99.1-.03.4-.06.55-.07.5-.04,1.33-.11,1.58-.95.06-.2.19-.86-.51-1.41-.05-.04-.11-.08-.16-.12l.82-1.99c.02-.05.05-.11.07-.16.01-.02.02-.04.02-.06.17-.39.36-.78.56-1.19.32-.64.64-1.3.89-2.01.16-.47.27-.91.34-1.35v-.07c.14-.82.15-1.55-.83-3.47-.56-1.08-1.65-1.9-2.94-2.21-.59-.14-1.22-.17-1.85-.08.47-.66,1.03-1.13,1.72-1.23.08-.01.16-.01.24-.01.65,0,1.37.34,1.92.94.57.61,1,1.44,1.39,2.69.5,1.58.77,3.25.81,4.97h0c.06,2.06-.23,4.13-.84,6.14-.61,2.02-1.52,3.9-2.71,5.58Z"/><path d="M51.77,116.08c-.09.51-1.29.76-3.17.76-1.4,0-3.19-.14-5.17-.43-.72-.1-1.46-.22-2.23-.37-2.91-.54-5.48-1.24-7.28-1.93-.07-.03-.15-.06-.22-.09-1.56-.63-2.46-1.24-2.38-1.72.12-.63,1.97-.87,4.71-.71,1.68.09,3.7.34,5.85.74,1.22.23,2.38.48,3.46.75,3.88.98,6.56,2.18,6.41,2.99Z"/><path d="M48.91,116.47c-.01.14-.12.27-.3.37-.77.48-2.96.67-5.71.51-.7-.04-1.44-.1-2.19-.18-3.68-.42-6.73-1.28-7.59-2.07-.18-.16-.26-.32-.24-.47.03-.25.33-.45.85-.61.11-.03.24-.06.37-.09h0c1.46-.31,4.05-.34,6.98,0,1.25.14,2.44.34,3.48.56,2.65.57,4.43,1.34,4.36,1.97Z"/><path d="M99.46,82.24s-.03-.07-.04-.1c0-.03-.02-.06-.02-.09.01.07.03.13.06.19Z"/></svg>